<mxfile host="Electron" agent="Mozilla/5.0 (X11; Linux x86_64) AppleWebKit/537.36 (KHTML, like Gecko) draw.io/24.7.8 Chrome/128.0.6613.36 Electron/32.0.1 Safari/537.36" version="24.7.8">
  <diagram name="Страница — 1" id="t-OcKnjfm7QPYweR2BIZ">
    <mxGraphModel dx="696" dy="462" grid="1" gridSize="10" guides="1" tooltips="1" connect="1" arrows="1" fold="1" page="1" pageScale="1" pageWidth="827" pageHeight="1169" math="0" shadow="0">
      <root>
        <mxCell id="0" />
        <mxCell id="1" parent="0" />
        <mxCell id="CYx-HvWqoBLvvBD5FqWq-1" value="Менеджер по работе с клиентами" style="shape=umlActor;verticalLabelPosition=bottom;verticalAlign=top;html=1;outlineConnect=0;fillColor=#60a917;fontColor=#ffffff;strokeColor=#2D7600;" parent="1" vertex="1">
          <mxGeometry x="70" y="105" width="60" height="140" as="geometry" />
        </mxCell>
        <mxCell id="CYx-HvWqoBLvvBD5FqWq-14" style="edgeStyle=orthogonalEdgeStyle;rounded=0;orthogonalLoop=1;jettySize=auto;html=1;endArrow=none;endFill=0;fillColor=#1ba1e2;strokeColor=#006EAF;dashed=1;" parent="1" source="CYx-HvWqoBLvvBD5FqWq-3" target="CYx-HvWqoBLvvBD5FqWq-13" edge="1">
          <mxGeometry relative="1" as="geometry" />
        </mxCell>
        <mxCell id="CYx-HvWqoBLvvBD5FqWq-3" value="Управление иформацией о клиенте" style="ellipse;whiteSpace=wrap;html=1;fillColor=#0050ef;fontColor=#ffffff;strokeColor=#001DBC;" parent="1" vertex="1">
          <mxGeometry x="150" y="20" width="210" height="40" as="geometry" />
        </mxCell>
        <mxCell id="CYx-HvWqoBLvvBD5FqWq-8" value="Работа с заказом" style="ellipse;whiteSpace=wrap;html=1;fillColor=#0050ef;fontColor=#ffffff;strokeColor=#001DBC;" parent="1" vertex="1">
          <mxGeometry x="185" y="155" width="140" height="40" as="geometry" />
        </mxCell>
        <mxCell id="CYx-HvWqoBLvvBD5FqWq-10" style="edgeStyle=orthogonalEdgeStyle;rounded=0;orthogonalLoop=1;jettySize=auto;html=1;endArrow=none;endFill=0;fillColor=#1ba1e2;strokeColor=#006EAF;" parent="1" source="CYx-HvWqoBLvvBD5FqWq-8" edge="1">
          <mxGeometry relative="1" as="geometry">
            <mxPoint x="120" y="175" as="targetPoint" />
          </mxGeometry>
        </mxCell>
        <mxCell id="CYx-HvWqoBLvvBD5FqWq-15" style="edgeStyle=orthogonalEdgeStyle;rounded=0;orthogonalLoop=1;jettySize=auto;html=1;endArrow=open;endFill=0;fillColor=#1ba1e2;strokeColor=#006EAF;dashed=1;" parent="1" source="CYx-HvWqoBLvvBD5FqWq-13" target="CYx-HvWqoBLvvBD5FqWq-8" edge="1">
          <mxGeometry relative="1" as="geometry" />
        </mxCell>
        <mxCell id="CYx-HvWqoBLvvBD5FqWq-13" value="&amp;lt;&amp;lt;расширить&amp;gt;&amp;gt;" style="text;html=1;align=center;verticalAlign=middle;whiteSpace=wrap;rounded=0;fillColor=none;fontColor=#6190ff;" parent="1" vertex="1">
          <mxGeometry x="225" y="90" width="60" height="30" as="geometry" />
        </mxCell>
        <mxCell id="CYx-HvWqoBLvvBD5FqWq-16" value="Менеджер по снабжению" style="shape=umlActor;verticalLabelPosition=bottom;verticalAlign=top;html=1;outlineConnect=0;fillColor=#60a917;fontColor=#ffffff;strokeColor=#2D7600;" parent="1" vertex="1">
          <mxGeometry x="70" y="300" width="60" height="140" as="geometry" />
        </mxCell>
        <mxCell id="CYx-HvWqoBLvvBD5FqWq-17" value="Управление иформацией о поставщиках" style="ellipse;whiteSpace=wrap;html=1;" parent="1" vertex="1">
          <mxGeometry x="207.5" y="300" width="235" height="40" as="geometry" />
        </mxCell>
        <mxCell id="CYx-HvWqoBLvvBD5FqWq-20" value="Управление иформацией о поставщиках" style="ellipse;whiteSpace=wrap;html=1;fillColor=#0050ef;fontColor=#ffffff;strokeColor=#001DBC;" parent="1" vertex="1">
          <mxGeometry x="207.5" y="300" width="235" height="40" as="geometry" />
        </mxCell>
        <mxCell id="CYx-HvWqoBLvvBD5FqWq-21" value="Управление иформацией о комплектующих" style="ellipse;whiteSpace=wrap;html=1;fillColor=#0050ef;fontColor=#ffffff;strokeColor=#001DBC;" parent="1" vertex="1">
          <mxGeometry x="198.75" y="450" width="252.5" height="40" as="geometry" />
        </mxCell>
        <mxCell id="CYx-HvWqoBLvvBD5FqWq-22" value="" style="endArrow=none;html=1;rounded=0;entryX=0;entryY=1;entryDx=0;entryDy=0;endFill=0;fillColor=#1ba1e2;strokeColor=#006EAF;" parent="1" source="CYx-HvWqoBLvvBD5FqWq-16" target="CYx-HvWqoBLvvBD5FqWq-20" edge="1">
          <mxGeometry width="50" height="50" relative="1" as="geometry">
            <mxPoint x="130" y="390" as="sourcePoint" />
            <mxPoint x="250" y="330" as="targetPoint" />
          </mxGeometry>
        </mxCell>
        <mxCell id="CYx-HvWqoBLvvBD5FqWq-23" value="" style="endArrow=none;html=1;rounded=0;entryX=0;entryY=0;entryDx=0;entryDy=0;endFill=0;fillColor=#1ba1e2;strokeColor=#006EAF;" parent="1" source="CYx-HvWqoBLvvBD5FqWq-16" target="CYx-HvWqoBLvvBD5FqWq-21" edge="1">
          <mxGeometry width="50" height="50" relative="1" as="geometry">
            <mxPoint x="140" y="372" as="sourcePoint" />
            <mxPoint x="252" y="344" as="targetPoint" />
          </mxGeometry>
        </mxCell>
        <mxCell id="CYx-HvWqoBLvvBD5FqWq-24" value="Завскладом" style="shape=umlActor;verticalLabelPosition=bottom;verticalAlign=top;html=1;outlineConnect=0;fillColor=#60a917;fontColor=#ffffff;strokeColor=#2D7600;" parent="1" vertex="1">
          <mxGeometry x="70" y="520" width="60" height="140" as="geometry" />
        </mxCell>
        <mxCell id="CYx-HvWqoBLvvBD5FqWq-26" style="edgeStyle=orthogonalEdgeStyle;rounded=0;orthogonalLoop=1;jettySize=auto;html=1;endArrow=none;endFill=0;fillColor=#1ba1e2;strokeColor=#006EAF;" parent="1" source="CYx-HvWqoBLvvBD5FqWq-25" target="CYx-HvWqoBLvvBD5FqWq-24" edge="1">
          <mxGeometry relative="1" as="geometry">
            <mxPoint x="140" y="610" as="targetPoint" />
            <Array as="points" />
          </mxGeometry>
        </mxCell>
        <mxCell id="CYx-HvWqoBLvvBD5FqWq-25" value="Учёт поступления и выдачи комплектующих" style="ellipse;whiteSpace=wrap;html=1;fillColor=#0050ef;fontColor=#ffffff;strokeColor=#001DBC;" parent="1" vertex="1">
          <mxGeometry x="190" y="570" width="270" height="40" as="geometry" />
        </mxCell>
        <mxCell id="CYx-HvWqoBLvvBD5FqWq-27" value="Инженер по тестированию" style="shape=umlActor;verticalLabelPosition=bottom;verticalAlign=top;html=1;outlineConnect=0;fillColor=#60a917;fontColor=#ffffff;strokeColor=#2D7600;" parent="1" vertex="1">
          <mxGeometry x="500" y="520" width="60" height="140" as="geometry" />
        </mxCell>
        <mxCell id="CYx-HvWqoBLvvBD5FqWq-28" value="" style="endArrow=none;html=1;rounded=0;entryX=0.1;entryY=0.183;entryDx=0;entryDy=0;entryPerimeter=0;fillColor=#1ba1e2;strokeColor=#006EAF;" parent="1" target="CYx-HvWqoBLvvBD5FqWq-30" edge="1">
          <mxGeometry width="50" height="50" relative="1" as="geometry">
            <mxPoint x="560" y="600" as="sourcePoint" />
            <mxPoint x="640" y="620" as="targetPoint" />
          </mxGeometry>
        </mxCell>
        <mxCell id="CYx-HvWqoBLvvBD5FqWq-30" value="Тестирование компьютеров" style="ellipse;whiteSpace=wrap;html=1;fillColor=#0050ef;fontColor=#ffffff;strokeColor=#001DBC;" parent="1" vertex="1">
          <mxGeometry x="640" y="630" width="160" height="30" as="geometry" />
        </mxCell>
        <mxCell id="0w7Wt9ihCc89E3nP5pzO-1" value="Инженер по сборке ноутбуков" style="shape=umlActor;verticalLabelPosition=bottom;verticalAlign=top;html=1;outlineConnect=0;fillColor=#60a917;fontColor=#ffffff;strokeColor=#2D7600;" vertex="1" parent="1">
          <mxGeometry x="677" width="60" height="140" as="geometry" />
        </mxCell>
        <mxCell id="0w7Wt9ihCc89E3nP5pzO-2" value="Инженер по сборке настольных компьютеров" style="shape=umlActor;verticalLabelPosition=bottom;verticalAlign=top;html=1;outlineConnect=0;fillColor=#60a917;fontColor=#ffffff;strokeColor=#2D7600;" vertex="1" parent="1">
          <mxGeometry x="460" width="60" height="140" as="geometry" />
        </mxCell>
        <mxCell id="0w7Wt9ihCc89E3nP5pzO-3" value="Инженер по сборке" style="shape=umlActor;verticalLabelPosition=bottom;verticalAlign=top;html=1;outlineConnect=0;fillColor=#60a917;fontColor=#ffffff;strokeColor=#2D7600;" vertex="1" parent="1">
          <mxGeometry x="567" y="200" width="60" height="140" as="geometry" />
        </mxCell>
        <mxCell id="0w7Wt9ihCc89E3nP5pzO-4" value="Сборка компьютеров" style="ellipse;whiteSpace=wrap;html=1;fillColor=#0050ef;fontColor=#ffffff;strokeColor=#001DBC;" vertex="1" parent="1">
          <mxGeometry x="397" y="370" width="140" height="40" as="geometry" />
        </mxCell>
        <mxCell id="0w7Wt9ihCc89E3nP5pzO-5" value="" style="endArrow=block;html=1;rounded=0;exitX=1;exitY=0.3333333333333333;exitDx=0;exitDy=0;exitPerimeter=0;entryX=0.246;entryY=0.338;entryDx=0;entryDy=0;entryPerimeter=0;fillColor=#1ba1e2;strokeColor=#006EAF;endFill=0;" edge="1" parent="1" target="0w7Wt9ihCc89E3nP5pzO-3">
          <mxGeometry width="50" height="50" relative="1" as="geometry">
            <mxPoint x="517" y="46.66666666666674" as="sourcePoint" />
            <mxPoint x="677" y="160" as="targetPoint" />
          </mxGeometry>
        </mxCell>
        <mxCell id="0w7Wt9ihCc89E3nP5pzO-6" value="" style="endArrow=block;html=1;rounded=0;exitX=0;exitY=0.3333333333333333;exitDx=0;exitDy=0;exitPerimeter=0;fillColor=#1ba1e2;strokeColor=#006EAF;endFill=0;entryX=0.779;entryY=0.344;entryDx=0;entryDy=0;entryPerimeter=0;" edge="1" parent="1" source="0w7Wt9ihCc89E3nP5pzO-1" target="0w7Wt9ihCc89E3nP5pzO-3">
          <mxGeometry width="50" height="50" relative="1" as="geometry">
            <mxPoint x="527" y="57" as="sourcePoint" />
            <mxPoint x="637" y="230" as="targetPoint" />
          </mxGeometry>
        </mxCell>
        <mxCell id="0w7Wt9ihCc89E3nP5pzO-7" value="" style="endArrow=none;html=1;rounded=0;exitX=0;exitY=0.3333333333333333;exitDx=0;exitDy=0;exitPerimeter=0;entryX=0.646;entryY=0.106;entryDx=0;entryDy=0;fillColor=#1ba1e2;strokeColor=#006EAF;endFill=0;entryPerimeter=0;" edge="1" parent="1" source="0w7Wt9ihCc89E3nP5pzO-3" target="0w7Wt9ihCc89E3nP5pzO-4">
          <mxGeometry width="50" height="50" relative="1" as="geometry">
            <mxPoint x="472" y="230" as="sourcePoint" />
            <mxPoint x="537" y="430" as="targetPoint" />
          </mxGeometry>
        </mxCell>
        <mxCell id="0w7Wt9ihCc89E3nP5pzO-8" value="Требование необходимых комплектующих" style="ellipse;whiteSpace=wrap;html=1;fillColor=#0050ef;fontColor=#ffffff;strokeColor=#001DBC;" vertex="1" parent="1">
          <mxGeometry x="617" y="495" width="210" height="45" as="geometry" />
        </mxCell>
        <mxCell id="0w7Wt9ihCc89E3nP5pzO-9" value="&amp;lt;&amp;lt;включить&amp;gt;&amp;gt;" style="text;html=1;align=center;verticalAlign=middle;whiteSpace=wrap;rounded=0;fillColor=none;fontColor=#6190ff;" vertex="1" parent="1">
          <mxGeometry x="580" y="430" width="60" height="30" as="geometry" />
        </mxCell>
        <mxCell id="0w7Wt9ihCc89E3nP5pzO-11" value="" style="endArrow=none;html=1;rounded=0;exitX=1;exitY=1;exitDx=0;exitDy=0;fillColor=#1ba1e2;strokeColor=#006EAF;endFill=0;dashed=1;" edge="1" parent="1" source="0w7Wt9ihCc89E3nP5pzO-4" target="0w7Wt9ihCc89E3nP5pzO-9">
          <mxGeometry width="50" height="50" relative="1" as="geometry">
            <mxPoint x="577" y="257" as="sourcePoint" />
            <mxPoint x="717" y="370" as="targetPoint" />
          </mxGeometry>
        </mxCell>
        <mxCell id="0w7Wt9ihCc89E3nP5pzO-12" value="" style="endArrow=none;html=1;rounded=0;fillColor=#1ba1e2;strokeColor=#006EAF;endFill=0;dashed=1;entryX=0.578;entryY=-0.007;entryDx=0;entryDy=0;entryPerimeter=0;" edge="1" parent="1" source="0w7Wt9ihCc89E3nP5pzO-9" target="0w7Wt9ihCc89E3nP5pzO-8">
          <mxGeometry width="50" height="50" relative="1" as="geometry">
            <mxPoint x="667" y="437" as="sourcePoint" />
            <mxPoint x="717" y="490" as="targetPoint" />
            <Array as="points" />
          </mxGeometry>
        </mxCell>
      </root>
    </mxGraphModel>
  </diagram>
</mxfile>
